<svg width="14" height="14" fill="none" xmlns="http://www.w3.org/2000/svg"><path d="M11.996 9.12256l-1.8381-.20987c-.44149-.05066-.8757.10132-1.18688.4125L7.63945 10.6568C5.59144 9.61466 3.91251 7.94296 2.87041 5.8877l1.33881-1.33882c.31118-.31118.46315-.74539.41249-1.18683l-.20986-1.82369C4.325.80745 3.70988.25745 2.97173.25745H1.71976C.902.25745.22175.9377.2724 1.75547.65595 7.93572 5.59868 12.8712 11.7717 13.2548c.8177.0506 1.498-.6296 1.498-1.4474v-1.2519c.0072-.73097-.5428-1.3461-1.2737-1.43294z" fill="#212121"/></svg>